<?xml version="1.0" encoding="UTF-8"?>
<!DOCTYPE svg PUBLIC "-//W3C//DTD SVG 1.1//EN" "http://www.w3.org/Graphics/SVG/1.1/DTD/svg11.dtd">
<svg xmlns="http://www.w3.org/2000/svg" version="1.1" width="512px" height="512px" style="shape-rendering:geometricPrecision; text-rendering:geometricPrecision; image-rendering:optimizeQuality; fill-rule:evenodd; clip-rule:evenodd" xmlns:xlink="http://www.w3.org/1999/xlink">
<g><path style="opacity:0.99" fill="#004fac" d="M 255.5,446.5 C 256.488,437.001 261.488,430.501 270.5,427C 335.642,426.355 386.142,399.189 422,345.5C 449.162,298.885 454.495,249.885 438,198.5C 408.151,126.135 353.985,88.1354 275.5,84.5C 212.968,87.1658 164.802,114.499 131,166.5C 122.104,180.762 115.938,195.762 112.5,211.5C 121.698,205.137 131.031,198.97 140.5,193C 160.35,189.187 170.184,197.354 170,217.5C 167.697,224.139 163.531,229.306 157.5,233C 137.5,246.333 117.5,259.667 97.5,273C 93.6989,275.416 89.6989,276.916 85.5,277.5C 77.3002,277.483 70.8002,274.15 66,267.5C 52.6667,250.833 39.3333,234.167 26,217.5C 19.5533,208.585 18.8866,199.252 24,189.5C 34.1305,178.912 45.2972,177.745 57.5,186C 61.3912,190.965 65.3912,195.799 69.5,200.5C 94.9086,117.924 149.575,66.4243 233.5,46C 314.698,32.2873 383.198,55.454 439,115.5C 486.29,173.677 500.956,239.344 483,312.5C 462.611,380.223 419.778,427.723 354.5,455C 328.072,465.071 300.739,469.738 272.5,469C 260.93,465.934 255.264,458.434 255.5,446.5 Z"/></g>
<g><path style="opacity:1" fill="#3e95ec" d="M 255.5,446.5 C 248.428,445.966 241.428,444.966 234.5,443.5C 236.691,434.904 234.691,427.404 228.5,421C 215.697,415.393 203.03,409.393 190.5,403C 161.749,385.25 139.582,361.417 124,331.5C 116.632,322.88 107.466,320.213 96.5,323.5C 91.055,308.612 87.3883,293.278 85.5,277.5C 89.6989,276.916 93.6989,275.416 97.5,273C 117.5,259.667 137.5,246.333 157.5,233C 163.531,229.306 167.697,224.139 170,217.5C 170.184,197.354 160.35,189.187 140.5,193C 131.031,198.97 121.698,205.137 112.5,211.5C 115.938,195.762 122.104,180.762 131,166.5C 164.802,114.499 212.968,87.1658 275.5,84.5C 353.985,88.1354 408.151,126.135 438,198.5C 454.495,249.885 449.162,298.885 422,345.5C 386.142,399.189 335.642,426.355 270.5,427C 261.488,430.501 256.488,437.001 255.5,446.5 Z"/></g>
<g><path style="opacity:1" fill="#fdfdfe" d="M 271.5,154.5 C 280.939,152.798 287.772,156.131 292,164.5C 292.333,193.167 292.667,221.833 293,250.5C 314.244,278.655 335.244,306.988 356,335.5C 357.833,351 351,357.833 335.5,356C 332.098,354.6 329.264,352.433 327,349.5C 304.948,320.448 283.281,291.115 262,261.5C 260.356,229.894 260.022,198.228 261,166.5C 262.936,161.068 266.436,157.068 271.5,154.5 Z"/></g>
<g><path style="opacity:0.989" fill="#004fac" d="M 234.5,443.5 C 229.858,455.325 221.191,460.159 208.5,458C 153.755,438.918 112.922,403.751 86,352.5C 81.9163,339.906 85.4163,330.24 96.5,323.5C 107.466,320.213 116.632,322.88 124,331.5C 139.582,361.417 161.749,385.25 190.5,403C 203.03,409.393 215.697,415.393 228.5,421C 234.691,427.404 236.691,434.904 234.5,443.5 Z"/></g>
</svg>
