<?xml version="1.0" encoding="UTF-8"?>
<!DOCTYPE svg PUBLIC "-//W3C//DTD SVG 1.1//EN" "http://www.w3.org/Graphics/SVG/1.1/DTD/svg11.dtd">
<svg xmlns="http://www.w3.org/2000/svg" version="1.1" width="512px" height="512px" style="shape-rendering:geometricPrecision; text-rendering:geometricPrecision; image-rendering:optimizeQuality; fill-rule:evenodd; clip-rule:evenodd" xmlns:xlink="http://www.w3.org/1999/xlink">
<g><path style="opacity:0.997" fill="#fe7919" d="M 219.5,-0.5 C 223.5,-0.5 227.5,-0.5 231.5,-0.5C 240.228,4.87006 248.228,11.2034 255.5,18.5C 255.5,106.167 255.5,193.833 255.5,281.5C 249.301,271.367 240.968,269.2 230.5,275C 229.213,276.41 228.046,277.91 227,279.5C 224.679,286.448 222.513,293.448 220.5,300.5C 212.521,301.332 204.521,301.832 196.5,302C 186.145,307.17 183.645,315.003 189,325.5C 191.1,328.467 193.934,330.3 197.5,331C 202.5,331.333 207.5,331.667 212.5,332C 209.446,341.715 206.779,351.548 204.5,361.5C 196.493,361.334 188.493,361.5 180.5,362C 171.265,365.971 168.099,372.804 171,382.5C 173.007,386.593 176.173,389.427 180.5,391C 185.489,391.499 190.489,391.666 195.5,391.5C 194.501,396.163 193.501,400.83 192.5,405.5C 194.081,418.285 201.081,423.118 213.5,420C 218.691,417.483 221.858,413.317 223,407.5C 224.172,402.146 225.339,396.813 226.5,391.5C 236.167,391.5 245.833,391.5 255.5,391.5C 255.5,431.5 255.5,471.5 255.5,511.5C 248.833,511.5 242.167,511.5 235.5,511.5C 157.033,500.017 102.533,457.684 72,384.5C 56.3829,339.716 55.7162,294.716 70,249.5C 78.7696,226.614 91.103,205.948 107,187.5C 127,166.833 147,146.167 167,125.5C 188.652,101.527 202.319,73.5265 208,41.5C 208.867,30.8051 209.867,20.1385 211,9.5C 212.978,5.36188 215.811,2.02855 219.5,-0.5 Z"/></g>
<g><path style="opacity:1" fill="#e64544" d="M 255.5,18.5 C 284.483,41.7818 300.983,72.1152 305,109.5C 305.667,120.833 305.667,132.167 305,143.5C 302.51,158.081 301.51,172.747 302,187.5C 307.949,204.23 319.782,211.397 337.5,209C 354.23,203.051 361.397,191.218 359,173.5C 358.144,169.456 356.478,165.789 354,162.5C 349.581,158.15 345.248,153.816 341,149.5C 338.334,142.001 339.834,135.501 345.5,130C 351.861,126.728 358.194,126.728 364.5,130C 401.691,157.569 426.858,193.736 440,238.5C 451.357,277.335 453.69,316.668 447,356.5C 428.943,430.558 383.776,479.724 311.5,504C 299.518,507.269 287.518,509.769 275.5,511.5C 268.833,511.5 262.167,511.5 255.5,511.5C 255.5,471.5 255.5,431.5 255.5,391.5C 257.167,391.5 258.833,391.5 260.5,391.5C 259.346,396.452 258.346,401.452 257.5,406.5C 260.299,420.389 268.299,424.556 281.5,419C 284.106,417.062 285.939,414.562 287,411.5C 288.679,405.116 290.512,398.783 292.5,392.5C 300.479,391.668 308.479,391.168 316.5,391C 328.405,384.618 330.405,375.951 322.5,365C 320.725,363.561 318.725,362.561 316.5,362C 311.511,361.501 306.511,361.334 301.5,361.5C 303.833,351.5 306.167,341.5 308.5,331.5C 316.507,331.666 324.507,331.5 332.5,331C 341.608,327.621 345.108,321.121 343,311.5C 341.167,307 338,303.833 333.5,302C 328.136,301.829 322.802,301.329 317.5,300.5C 320.045,294.385 320.878,288.052 320,281.5C 314.121,270.858 305.955,268.691 295.5,275C 294.213,276.41 293.046,277.91 292,279.5C 289.905,286.718 287.739,293.885 285.5,301C 275.506,301.5 265.506,301.666 255.5,301.5C 255.5,297.5 255.5,293.5 255.5,289.5C 255.5,286.833 255.5,284.167 255.5,281.5C 255.5,193.833 255.5,106.167 255.5,18.5 Z"/></g>
<g><path style="opacity:0.985" fill="#e64444" d="M 133.5,29.5 C 141.169,29.4117 146.669,32.7451 150,39.5C 150.667,53.1667 150.667,66.8333 150,80.5C 145.213,90.1329 137.713,92.9662 127.5,89C 122.889,86.065 120.389,81.8983 120,76.5C 119.106,64.1179 119.439,51.7845 121,39.5C 123.432,33.882 127.599,30.5487 133.5,29.5 Z"/></g>
<g><path style="opacity:0.986" fill="#e64444" d="M 343.5,29.5 C 353.841,29.3466 359.675,34.3466 361,44.5C 361.894,56.8821 361.561,69.2155 360,81.5C 354.218,90.7716 346.384,92.9383 336.5,88C 333.865,86.0395 332.031,83.5395 331,80.5C 330.333,66.8333 330.333,53.1667 331,39.5C 333.432,33.882 337.599,30.5487 343.5,29.5 Z"/></g>
<g><path style="opacity:1" fill="#f0f6fd" d="M 255.5,281.5 C 255.5,284.167 255.5,286.833 255.5,289.5C 253.719,293.2 252.719,297.2 252.5,301.5C 253.5,301.5 254.5,301.5 255.5,301.5C 255.5,311.5 255.5,321.5 255.5,331.5C 251.445,331.176 247.445,331.509 243.5,332.5C 240.422,342.065 237.756,351.731 235.5,361.5C 242.167,361.5 248.833,361.5 255.5,361.5C 255.5,371.5 255.5,381.5 255.5,391.5C 245.833,391.5 236.167,391.5 226.5,391.5C 225.339,396.813 224.172,402.146 223,407.5C 221.858,413.317 218.691,417.483 213.5,420C 201.081,423.118 194.081,418.285 192.5,405.5C 193.501,400.83 194.501,396.163 195.5,391.5C 190.489,391.666 185.489,391.499 180.5,391C 176.173,389.427 173.007,386.593 171,382.5C 168.099,372.804 171.265,365.971 180.5,362C 188.493,361.5 196.493,361.334 204.5,361.5C 206.779,351.548 209.446,341.715 212.5,332C 207.5,331.667 202.5,331.333 197.5,331C 193.934,330.3 191.1,328.467 189,325.5C 183.645,315.003 186.145,307.17 196.5,302C 204.521,301.832 212.521,301.332 220.5,300.5C 222.513,293.448 224.679,286.448 227,279.5C 228.046,277.91 229.213,276.41 230.5,275C 240.968,269.2 249.301,271.367 255.5,281.5 Z"/></g>
<g><path style="opacity:1" fill="#dfe6f3" d="M 255.5,391.5 C 255.5,381.5 255.5,371.5 255.5,361.5C 260.167,361.5 264.833,361.5 269.5,361.5C 271.756,351.731 274.422,342.065 277.5,332.5C 270.197,331.503 262.863,331.169 255.5,331.5C 255.5,321.5 255.5,311.5 255.5,301.5C 265.506,301.666 275.506,301.5 285.5,301C 287.739,293.885 289.905,286.718 292,279.5C 293.046,277.91 294.213,276.41 295.5,275C 305.955,268.691 314.121,270.858 320,281.5C 320.878,288.052 320.045,294.385 317.5,300.5C 322.802,301.329 328.136,301.829 333.5,302C 338,303.833 341.167,307 343,311.5C 345.108,321.121 341.608,327.621 332.5,331C 324.507,331.5 316.507,331.666 308.5,331.5C 306.167,341.5 303.833,351.5 301.5,361.5C 306.511,361.334 311.511,361.501 316.5,362C 318.725,362.561 320.725,363.561 322.5,365C 330.405,375.951 328.405,384.618 316.5,391C 308.479,391.168 300.479,391.668 292.5,392.5C 290.512,398.783 288.679,405.116 287,411.5C 285.939,414.562 284.106,417.062 281.5,419C 268.299,424.556 260.299,420.389 257.5,406.5C 258.346,401.452 259.346,396.452 260.5,391.5C 258.833,391.5 257.167,391.5 255.5,391.5 Z"/></g>
<g><path style="opacity:1" fill="#fe8533" d="M 255.5,289.5 C 255.5,293.5 255.5,297.5 255.5,301.5C 254.5,301.5 253.5,301.5 252.5,301.5C 252.719,297.2 253.719,293.2 255.5,289.5 Z"/></g>
<g><path style="opacity:1" fill="#fe7a1d" d="M 255.5,331.5 C 255.5,341.5 255.5,351.5 255.5,361.5C 248.833,361.5 242.167,361.5 235.5,361.5C 237.756,351.731 240.422,342.065 243.5,332.5C 247.445,331.509 251.445,331.176 255.5,331.5 Z"/></g>
<g><path style="opacity:1" fill="#e64646" d="M 255.5,331.5 C 262.863,331.169 270.197,331.503 277.5,332.5C 274.422,342.065 271.756,351.731 269.5,361.5C 264.833,361.5 260.167,361.5 255.5,361.5C 255.5,351.5 255.5,341.5 255.5,331.5 Z"/></g>
</svg>
