<?xml version="1.0" encoding="UTF-8"?>
<!DOCTYPE svg PUBLIC "-//W3C//DTD SVG 1.1//EN" "http://www.w3.org/Graphics/SVG/1.1/DTD/svg11.dtd">
<svg xmlns="http://www.w3.org/2000/svg" version="1.1" width="512px" height="512px" style="shape-rendering:geometricPrecision; text-rendering:geometricPrecision; image-rendering:optimizeQuality; fill-rule:evenodd; clip-rule:evenodd" xmlns:xlink="http://www.w3.org/1999/xlink">
<g><path style="opacity:0.984" fill="#000000" d="M 353.5,-0.5 C 358.5,-0.5 363.5,-0.5 368.5,-0.5C 373.065,1.4539 377.398,3.9539 381.5,7C 388.698,13.8638 395.532,21.0305 402,28.5C 408.229,39.6816 407.895,50.6816 401,61.5C 336.32,126.014 271.82,190.68 207.5,255.5C 272.514,320.68 337.347,386.014 402,451.5C 407.971,462.318 407.637,472.985 401,483.5C 393.167,491.333 385.333,499.167 377.5,507C 374.408,508.546 371.408,510.046 368.5,511.5C 363.5,511.5 358.5,511.5 353.5,511.5C 348.935,509.546 344.602,507.046 340.5,504C 264.667,428.167 188.833,352.333 113,276.5C 102.968,264.544 101.968,251.877 110,238.5C 188.167,160.333 266.333,82.1667 344.5,4C 347.592,2.45406 350.592,0.95406 353.5,-0.5 Z"/></g>
</svg>
