<?xml version="1.0" encoding="UTF-8"?>
<!DOCTYPE svg PUBLIC "-//W3C//DTD SVG 1.1//EN" "http://www.w3.org/Graphics/SVG/1.1/DTD/svg11.dtd">
<svg xmlns="http://www.w3.org/2000/svg" version="1.1" width="512px" height="512px" style="shape-rendering:geometricPrecision; text-rendering:geometricPrecision; image-rendering:optimizeQuality; fill-rule:evenodd; clip-rule:evenodd" xmlns:xlink="http://www.w3.org/1999/xlink">
<g><path style="opacity:0.995" fill="#01a9e1" d="M 56.5,-0.5 C 189.167,-0.5 321.833,-0.5 454.5,-0.5C 485.167,6.83333 504.167,25.8333 511.5,56.5C 511.5,57.8333 511.5,59.1667 511.5,60.5C 502.979,60.8461 494.646,61.8461 486.5,63.5C 481.792,39.2939 467.125,26.1273 442.5,24C 317.833,23.3333 193.167,23.3333 68.5,24C 47.3715,25.1441 33.2048,35.6441 26,55.5C 24.8924,59.0863 24.3924,62.753 24.5,66.5C 23.5489,65.0813 23.2155,63.4147 23.5,61.5C 15.5,61.5 7.5,61.5 -0.5,61.5C -0.5,59.8333 -0.5,58.1667 -0.5,56.5C 6.83333,25.8333 25.8333,6.83333 56.5,-0.5 Z"/></g>
<g><path style="opacity:0.998" fill="#09abde" d="M 511.5,60.5 C 511.5,76.8333 511.5,93.1667 511.5,109.5C 503.5,109.5 495.5,109.5 487.5,109.5C 487.751,94.1423 487.418,78.8089 486.5,63.5C 494.646,61.8461 502.979,60.8461 511.5,60.5 Z"/></g>
<g><path style="opacity:0.999" fill="#09abde" d="M -0.5,61.5 C 7.5,61.5 15.5,61.5 23.5,61.5C 23.2155,63.4147 23.5489,65.0813 24.5,66.5C 23.5337,80.7848 23.2004,95.1181 23.5,109.5C 15.5,109.5 7.5,109.5 -0.5,109.5C -0.5,93.5 -0.5,77.5 -0.5,61.5 Z"/></g>
<g><path style="opacity:1" fill="#0faddb" d="M -0.5,109.5 C 7.5,109.5 15.5,109.5 23.5,109.5C 23.5,121.167 23.5,132.833 23.5,144.5C 15.5,144.5 7.5,144.5 -0.5,144.5C -0.5,132.833 -0.5,121.167 -0.5,109.5 Z"/></g>
<g><path style="opacity:1" fill="#0faddb" d="M 487.5,109.5 C 495.5,109.5 503.5,109.5 511.5,109.5C 511.5,121.167 511.5,132.833 511.5,144.5C 503.5,144.5 495.5,144.5 487.5,144.5C 487.5,132.833 487.5,121.167 487.5,109.5 Z"/></g>
<g><path style="opacity:0.995" fill="#10addb" d="M 314.5,164.5 C 313.509,158.021 313.176,151.354 313.5,144.5C 305.833,144.5 298.167,144.5 290.5,144.5C 290.795,146.735 290.461,148.735 289.5,150.5C 289.5,147.833 289.5,145.167 289.5,142.5C 244.821,141.839 200.487,142.505 156.5,144.5C 148.5,144.5 140.5,144.5 132.5,144.5C 132.824,151.354 132.491,158.021 131.5,164.5C 131.105,154.434 131.605,144.434 133,134.5C 135.818,126.503 141.318,121.336 149.5,119C 198.5,118.333 247.5,118.333 296.5,119C 304.721,121.346 310.221,126.513 313,134.5C 314.395,144.434 314.895,154.434 314.5,164.5 Z"/></g>
<g><path style="opacity:1" fill="#15afd8" d="M -0.5,144.5 C 7.5,144.5 15.5,144.5 23.5,144.5C 23.5,156.5 23.5,168.5 23.5,180.5C 15.5,180.5 7.5,180.5 -0.5,180.5C -0.5,168.5 -0.5,156.5 -0.5,144.5 Z"/></g>
<g><path style="opacity:0.977" fill="#15afd8" d="M 156.5,144.5 C 156.5,154.5 156.5,164.5 156.5,174.5C 155.539,176.265 155.205,178.265 155.5,180.5C 147.5,180.5 139.5,180.5 131.5,180.5C 131.5,175.167 131.5,169.833 131.5,164.5C 132.491,158.021 132.824,151.354 132.5,144.5C 140.5,144.5 148.5,144.5 156.5,144.5 Z"/></g>
<g><path style="opacity:0.975" fill="#15afd8" d="M 314.5,164.5 C 314.5,170.833 314.5,177.167 314.5,183.5C 313.596,182.791 313.263,181.791 313.5,180.5C 305.5,180.5 297.5,180.5 289.5,180.5C 289.5,170.5 289.5,160.5 289.5,150.5C 290.461,148.735 290.795,146.735 290.5,144.5C 298.167,144.5 305.833,144.5 313.5,144.5C 313.176,151.354 313.509,158.021 314.5,164.5 Z"/></g>
<g><path style="opacity:1" fill="#15afd8" d="M 487.5,144.5 C 495.5,144.5 503.5,144.5 511.5,144.5C 511.5,156.5 511.5,168.5 511.5,180.5C 503.5,180.5 495.5,180.5 487.5,180.5C 487.5,168.5 487.5,156.5 487.5,144.5 Z"/></g>
<g><path style="opacity:0.96" fill="#1bb1d6" d="M 156.5,174.5 C 156.5,188.5 156.5,202.5 156.5,216.5C 155.549,217.919 155.216,219.585 155.5,221.5C 147.5,221.5 139.5,221.5 131.5,221.5C 131.5,207.833 131.5,194.167 131.5,180.5C 139.5,180.5 147.5,180.5 155.5,180.5C 155.205,178.265 155.539,176.265 156.5,174.5 Z"/></g>
<g><path style="opacity:1" fill="#1cb1d6" d="M -0.5,180.5 C 7.5,180.5 15.5,180.5 23.5,180.5C 23.5,194.167 23.5,207.833 23.5,221.5C 15.5,221.5 7.5,221.5 -0.5,221.5C -0.5,207.833 -0.5,194.167 -0.5,180.5 Z"/></g>
<g><path style="opacity:0.988" fill="#1bb1d6" d="M 289.5,180.5 C 297.5,180.5 305.5,180.5 313.5,180.5C 313.263,181.791 313.596,182.791 314.5,183.5C 330.17,183.333 345.837,183.5 361.5,184C 369.682,186.336 375.182,191.503 378,199.5C 379.348,206.761 379.848,214.094 379.5,221.5C 371.167,221.5 362.833,221.5 354.5,221.5C 354.5,216.833 354.5,212.167 354.5,207.5C 310.167,207.5 265.833,207.5 221.5,207.5C 221.5,212.167 221.5,216.833 221.5,221.5C 213.5,221.5 205.5,221.5 197.5,221.5C 197.818,226.032 197.485,230.366 196.5,234.5C 196.334,224.161 196.5,213.828 197,203.5C 198.81,193.376 204.643,186.876 214.5,184C 239.498,183.5 264.498,183.333 289.5,183.5C 289.5,182.5 289.5,181.5 289.5,180.5 Z"/></g>
<g><path style="opacity:1" fill="#1cb1d6" d="M 487.5,180.5 C 495.5,180.5 503.5,180.5 511.5,180.5C 511.5,194.167 511.5,207.833 511.5,221.5C 503.5,221.5 495.5,221.5 487.5,221.5C 487.5,207.833 487.5,194.167 487.5,180.5 Z"/></g>
<g><path style="opacity:1" fill="#23b3d2" d="M -0.5,221.5 C 7.5,221.5 15.5,221.5 23.5,221.5C 23.5,240.5 23.5,259.5 23.5,278.5C 15.5,278.5 7.5,278.5 -0.5,278.5C -0.5,259.5 -0.5,240.5 -0.5,221.5 Z"/></g>
<g><path style="opacity:0.959" fill="#22b3d3" d="M 156.5,216.5 C 156.5,230.167 156.5,243.833 156.5,257.5C 148.5,257.5 140.5,257.5 132.5,257.5C 132.784,259.415 132.451,261.081 131.5,262.5C 131.5,248.833 131.5,235.167 131.5,221.5C 139.5,221.5 147.5,221.5 155.5,221.5C 155.216,219.585 155.549,217.919 156.5,216.5 Z"/></g>
<g><path style="opacity:0.973" fill="#22b3d3" d="M 221.5,221.5 C 221.5,233.5 221.5,245.5 221.5,257.5C 213.5,257.5 205.5,257.5 197.5,257.5C 197.784,255.585 197.451,253.919 196.5,252.5C 196.5,246.5 196.5,240.5 196.5,234.5C 197.485,230.366 197.818,226.032 197.5,221.5C 205.5,221.5 213.5,221.5 221.5,221.5 Z"/></g>
<g><path style="opacity:0.956" fill="#22b3d3" d="M 354.5,221.5 C 362.833,221.5 371.167,221.5 379.5,221.5C 379.5,235.167 379.5,248.833 379.5,262.5C 378.549,261.081 378.216,259.415 378.5,257.5C 370.5,257.5 362.5,257.5 354.5,257.5C 354.5,245.5 354.5,233.5 354.5,221.5 Z"/></g>
<g><path style="opacity:1" fill="#23b3d2" d="M 487.5,221.5 C 495.5,221.5 503.5,221.5 511.5,221.5C 511.5,240.5 511.5,259.5 511.5,278.5C 503.5,278.5 495.5,278.5 487.5,278.5C 487.5,259.5 487.5,240.5 487.5,221.5 Z"/></g>
<g><path style="opacity:0.991" fill="#22b3d3" d="M 245.5,229.5 C 273.835,229.333 302.169,229.5 330.5,230C 336.952,231.623 340.285,235.79 340.5,242.5C 339.903,248.259 336.903,252.092 331.5,254C 302.5,254.667 273.5,254.667 244.5,254C 235.65,249.789 233.484,243.289 238,234.5C 240.17,232.177 242.67,230.51 245.5,229.5 Z"/></g>
<g><path style="opacity:0.932" fill="#2ab5cf" d="M 196.5,252.5 C 197.451,253.919 197.784,255.585 197.5,257.5C 205.5,257.5 213.5,257.5 221.5,257.5C 221.5,270.167 221.5,282.833 221.5,295.5C 213.5,295.5 205.5,295.5 197.5,295.5C 197.806,298.385 197.473,301.052 196.5,303.5C 196.5,286.5 196.5,269.5 196.5,252.5 Z"/></g>
<g><path style="opacity:0.96" fill="#2ab5cf" d="M 156.5,257.5 C 156.5,270.167 156.5,282.833 156.5,295.5C 148.5,295.5 140.5,295.5 132.5,295.5C 132.5,299.5 132.5,303.5 132.5,307.5C 131.504,292.676 131.171,277.676 131.5,262.5C 132.451,261.081 132.784,259.415 132.5,257.5C 140.5,257.5 148.5,257.5 156.5,257.5 Z"/></g>
<g><path style="opacity:0.993" fill="#2cb6cf" d="M 244.5,275.5 C 273.502,275.333 302.502,275.5 331.5,276C 340.386,280.269 342.552,286.769 338,295.5C 336.269,297.617 334.102,299.117 331.5,300C 302.5,300.667 273.5,300.667 244.5,300C 235.614,295.731 233.448,289.231 238,280.5C 239.965,278.45 242.132,276.783 244.5,275.5 Z"/></g>
<g><path style="opacity:0.951" fill="#2ab5cf" d="M 354.5,257.5 C 362.5,257.5 370.5,257.5 378.5,257.5C 378.216,259.415 378.549,261.081 379.5,262.5C 379.5,277.167 379.5,291.833 379.5,306.5C 378.518,303.038 378.185,299.371 378.5,295.5C 370.5,295.5 362.5,295.5 354.5,295.5C 354.5,282.833 354.5,270.167 354.5,257.5 Z"/></g>
<g><path style="opacity:1" fill="#2eb6ce" d="M -0.5,278.5 C 7.5,278.5 15.5,278.5 23.5,278.5C 23.5,290.833 23.5,303.167 23.5,315.5C 15.5,315.5 7.5,315.5 -0.5,315.5C -0.5,303.167 -0.5,290.833 -0.5,278.5 Z"/></g>
<g><path style="opacity:1" fill="#2eb6ce" d="M 487.5,278.5 C 495.5,278.5 503.5,278.5 511.5,278.5C 511.5,290.833 511.5,303.167 511.5,315.5C 503.5,315.5 495.5,315.5 487.5,315.5C 487.5,303.167 487.5,290.833 487.5,278.5 Z"/></g>
<g><path style="opacity:0.956" fill="#33b8cb" d="M 354.5,295.5 C 362.5,295.5 370.5,295.5 378.5,295.5C 378.185,299.371 378.518,303.038 379.5,306.5C 379.5,322.167 379.5,337.833 379.5,353.5C 378.549,352.081 378.216,350.415 378.5,348.5C 370.833,348.5 363.167,348.5 355.5,348.5C 355.784,346.585 355.451,344.919 354.5,343.5C 354.5,327.5 354.5,311.5 354.5,295.5 Z"/></g>
<g><path style="opacity:0.979" fill="#32b8cc" d="M 156.5,295.5 C 156.5,298.167 156.5,300.833 156.5,303.5C 169.833,303.5 183.167,303.5 196.5,303.5C 197.473,301.052 197.806,298.385 197.5,295.5C 205.5,295.5 213.5,295.5 221.5,295.5C 221.5,314.833 221.5,334.167 221.5,353.5C 220.549,352.081 220.216,350.415 220.5,348.5C 212.5,348.5 204.5,348.5 196.5,348.5C 196.5,341.5 196.5,334.5 196.5,327.5C 180.83,327.667 165.163,327.5 149.5,327C 139.536,324.234 133.869,317.734 132.5,307.5C 132.5,303.5 132.5,299.5 132.5,295.5C 140.5,295.5 148.5,295.5 156.5,295.5 Z"/></g>
<g><path style="opacity:0.977" fill="#35b9cb" d="M 243.5,321.5 C 273.169,321.333 302.835,321.5 332.5,322C 340.615,326.684 342.449,333.184 338,341.5C 336.048,343.894 333.548,345.394 330.5,346C 302.167,346.667 273.833,346.667 245.5,346C 236.714,342.664 233.881,336.497 237,327.5C 239.063,325.266 241.229,323.266 243.5,321.5 Z"/></g>
<g><path style="opacity:0.985" fill="#3cbac8" d="M 354.5,343.5 C 355.451,344.919 355.784,346.585 355.5,348.5C 363.167,348.5 370.833,348.5 378.5,348.5C 378.216,350.415 378.549,352.081 379.5,353.5C 379.666,359.842 379.5,366.175 379,372.5C 378.79,374.058 378.29,375.391 377.5,376.5C 317.843,374.504 257.843,373.837 197.5,374.5C 196.558,365.887 196.225,357.221 196.5,348.5C 204.5,348.5 212.5,348.5 220.5,348.5C 220.216,350.415 220.549,352.081 221.5,353.5C 221.5,358.5 221.5,363.5 221.5,368.5C 265.833,368.5 310.167,368.5 354.5,368.5C 354.5,360.167 354.5,351.833 354.5,343.5 Z"/></g>
<g><path style="opacity:1" fill="#39b9c9" d="M -0.5,315.5 C 7.5,315.5 15.5,315.5 23.5,315.5C 23.5,335.167 23.5,354.833 23.5,374.5C 15.5,374.5 7.5,374.5 -0.5,374.5C -0.5,354.833 -0.5,335.167 -0.5,315.5 Z"/></g>
<g><path style="opacity:1" fill="#39b9c9" d="M 487.5,315.5 C 495.5,315.5 503.5,315.5 511.5,315.5C 511.5,335.167 511.5,354.833 511.5,374.5C 503.5,374.5 495.5,374.5 487.5,374.5C 487.5,354.833 487.5,335.167 487.5,315.5 Z"/></g>
<g><path style="opacity:0.995" fill="#3fbcc6" d="M 197.5,374.5 C 257.843,373.837 317.843,374.504 377.5,376.5C 374.983,384.516 369.649,389.683 361.5,392C 312.5,392.667 263.5,392.667 214.5,392C 205.277,389.61 199.61,383.777 197.5,374.5 Z"/></g>
<g><path style="opacity:1" fill="#45bdc4" d="M -0.5,374.5 C 7.5,374.5 15.5,374.5 23.5,374.5C 23.5,394.833 23.5,415.167 23.5,435.5C 15.5,435.5 7.5,435.5 -0.5,435.5C -0.5,415.167 -0.5,394.833 -0.5,374.5 Z"/></g>
<g><path style="opacity:1" fill="#45bdc4" d="M 487.5,374.5 C 495.5,374.5 503.5,374.5 511.5,374.5C 511.5,394.833 511.5,415.167 511.5,435.5C 503.5,435.5 495.5,435.5 487.5,435.5C 487.5,415.167 487.5,394.833 487.5,374.5 Z"/></g>
<g><path style="opacity:0.978" fill="#4ec0c0" d="M -0.5,435.5 C 7.5,435.5 15.5,435.5 23.5,435.5C 23.0404,446.995 25.7071,457.662 31.5,467.5C 22.6822,468.493 13.6822,468.827 4.5,468.5C 2.21936,464.039 0.552689,459.372 -0.5,454.5C -0.5,448.167 -0.5,441.833 -0.5,435.5 Z"/></g>
<g><path style="opacity:0.975" fill="#4ec0c0" d="M 487.5,435.5 C 495.5,435.5 503.5,435.5 511.5,435.5C 511.5,441.833 511.5,448.167 511.5,454.5C 510.268,460.421 508.268,466.087 505.5,471.5C 496.348,470.506 487.015,470.173 477.5,470.5C 484.709,460.007 488.042,448.34 487.5,435.5 Z"/></g>
<g><path style="opacity:0.989" fill="#55c2bd" d="M 31.5,467.5 C 40.6823,479.76 53.0157,486.26 68.5,487C 193.167,487.667 317.833,487.667 442.5,487C 456.507,486.328 468.174,480.828 477.5,470.5C 487.015,470.173 496.348,470.506 505.5,471.5C 502.215,479.741 497.215,486.741 490.5,492.5C 333.999,492.167 177.666,492.5 21.5,493.5C 13.5942,486.688 7.9275,478.355 4.5,468.5C 13.6822,468.827 22.6822,468.493 31.5,467.5 Z"/></g>
<g><path style="opacity:0.998" fill="#59c3bc" d="M 490.5,492.5 C 480.458,502.521 468.458,508.855 454.5,511.5C 321.833,511.5 189.167,511.5 56.5,511.5C 43.052,508.943 31.3854,502.943 21.5,493.5C 177.666,492.5 333.999,492.167 490.5,492.5 Z"/></g>
</svg>
