<?xml version="1.0" encoding="UTF-8"?>
<!DOCTYPE svg PUBLIC "-//W3C//DTD SVG 1.1//EN" "http://www.w3.org/Graphics/SVG/1.1/DTD/svg11.dtd">
<svg xmlns="http://www.w3.org/2000/svg" version="1.1" width="512px" height="512px" style="shape-rendering:geometricPrecision; text-rendering:geometricPrecision; image-rendering:optimizeQuality; fill-rule:evenodd; clip-rule:evenodd" xmlns:xlink="http://www.w3.org/1999/xlink">
<g><path style="opacity:0.993" fill="#000000" d="M 66.5,-0.5 C 192.5,-0.5 318.5,-0.5 444.5,-0.5C 480.833,7.83333 503.167,30.1667 511.5,66.5C 511.5,139.167 511.5,211.833 511.5,284.5C 504.6,297.599 494.267,301.099 480.5,295C 476.61,292.404 473.777,288.904 472,284.5C 471.667,216.167 471.333,147.833 471,79.5C 468.5,55.6667 455.333,42.5 431.5,40C 314.167,39.3333 196.833,39.3333 79.5,40C 55.6667,42.5 42.5,55.6667 40,79.5C 39.3333,196.833 39.3333,314.167 40,431.5C 42.5,455.333 55.6667,468.5 79.5,471C 150.5,471.333 221.5,471.667 292.5,472C 305.704,478.682 309.204,488.849 303,502.5C 300.16,506.327 296.66,509.327 292.5,511.5C 217.167,511.5 141.833,511.5 66.5,511.5C 30.5,502.833 8.16667,480.5 -0.5,444.5C -0.5,318.5 -0.5,192.5 -0.5,66.5C 7.5,29.8333 29.8333,7.5 66.5,-0.5 Z"/></g>
<g><path style="opacity:0.968" fill="#000000" d="M 112.5,112.5 C 123.838,112.333 135.172,112.5 146.5,113C 157.752,118.343 161.919,127.176 159,139.5C 156.833,145.667 152.667,149.833 146.5,152C 135.167,152.667 123.833,152.667 112.5,152C 101.248,146.657 97.0811,137.824 100,125.5C 102.353,119.315 106.52,114.982 112.5,112.5 Z"/></g>
<g><path style="opacity:0.992" fill="#000000" d="M 212.5,112.5 C 274.501,112.333 336.501,112.5 398.5,113C 409.752,118.343 413.919,127.176 411,139.5C 408.833,145.667 404.667,149.833 398.5,152C 336.5,152.667 274.5,152.667 212.5,152C 199.296,145.318 195.796,135.151 202,121.5C 204.84,117.673 208.34,114.673 212.5,112.5 Z"/></g>
<g><path style="opacity:0.968" fill="#000000" d="M 112.5,232.5 C 123.838,232.333 135.172,232.5 146.5,233C 157.752,238.343 161.919,247.176 159,259.5C 156.833,265.667 152.667,269.833 146.5,272C 135.167,272.667 123.833,272.667 112.5,272C 101.248,266.657 97.0811,257.824 100,245.5C 102.353,239.315 106.52,234.982 112.5,232.5 Z"/></g>
<g><path style="opacity:0.992" fill="#000000" d="M 212.5,232.5 C 274.501,232.333 336.501,232.5 398.5,233C 409.752,238.343 413.919,247.176 411,259.5C 408.833,265.667 404.667,269.833 398.5,272C 336.5,272.667 274.5,272.667 212.5,272C 199.296,265.318 195.796,255.151 202,241.5C 204.84,237.673 208.34,234.673 212.5,232.5 Z"/></g>
<g><path style="opacity:0.97" fill="#000000" d="M 511.5,484.5 C 511.5,489.167 511.5,493.833 511.5,498.5C 510.024,500.769 508.524,503.102 507,505.5C 504.264,507.752 501.431,509.752 498.5,511.5C 493.833,511.5 489.167,511.5 484.5,511.5C 482.231,510.024 479.898,508.524 477.5,507C 466,495.5 454.5,484 443,472.5C 420.087,485.146 395.92,487.98 370.5,481C 324.708,463.287 303.875,429.787 308,380.5C 316.5,338.667 341.667,313.5 383.5,305C 432.787,300.875 466.287,321.708 484,367.5C 491.594,394.471 488.094,419.805 473.5,443.5C 484.486,454.986 495.652,466.319 507,477.5C 508.524,479.898 510.024,482.231 511.5,484.5 Z M 387.5,345.5 C 417.604,342.794 437.104,355.794 446,384.5C 449.192,414.627 436.359,434.127 407.5,443C 377.373,446.192 357.873,433.359 349,404.5C 346.015,374.348 358.848,354.682 387.5,345.5 Z"/></g>
<g><path style="opacity:0.968" fill="#000000" d="M 112.5,359.5 C 123.838,359.333 135.172,359.5 146.5,360C 157.752,365.343 161.919,374.176 159,386.5C 156.833,392.667 152.667,396.833 146.5,399C 135.167,399.667 123.833,399.667 112.5,399C 101.248,393.657 97.0811,384.824 100,372.5C 102.353,366.315 106.52,361.982 112.5,359.5 Z"/></g>
<g><path style="opacity:0.972" fill="#000000" d="M 212.5,359.5 C 226.504,359.333 240.504,359.5 254.5,360C 267.704,366.682 271.204,376.849 265,390.5C 262.404,394.39 258.904,397.223 254.5,399C 240.5,399.667 226.5,399.667 212.5,399C 201.248,393.657 197.081,384.824 200,372.5C 202.353,366.315 206.52,361.982 212.5,359.5 Z"/></g>
</svg>
