<?xml version="1.0" encoding="UTF-8"?>
<!DOCTYPE svg PUBLIC "-//W3C//DTD SVG 1.1//EN" "http://www.w3.org/Graphics/SVG/1.1/DTD/svg11.dtd">
<svg xmlns="http://www.w3.org/2000/svg" version="1.1" width="500px" height="500px" style="shape-rendering:geometricPrecision; text-rendering:geometricPrecision; image-rendering:optimizeQuality; fill-rule:evenodd; clip-rule:evenodd" xmlns:xlink="http://www.w3.org/1999/xlink">
<g><path style="opacity:1" fill="#fefefe" d="M -0.5,-0.5 C 166.167,-0.5 332.833,-0.5 499.5,-0.5C 499.5,166.167 499.5,332.833 499.5,499.5C 332.833,499.5 166.167,499.5 -0.5,499.5C -0.5,332.833 -0.5,166.167 -0.5,-0.5 Z"/></g>
<g><path style="opacity:1" fill="#bffc74" d="M 415.5,200.5 C 410.353,201.473 406.853,204.473 405,209.5C 403.407,201.446 398.574,198.613 390.5,201C 389.019,201.98 387.685,203.147 386.5,204.5C 383.897,201.084 380.397,199.751 376,200.5C 371.378,199.8 367.544,201.133 364.5,204.5C 365.711,205.874 366.711,207.374 367.5,209C 364.798,216.772 362.298,224.605 360,232.5C 358.842,234.491 357.342,236.158 355.5,237.5C 355.709,238.086 356.043,238.586 356.5,239C 364.833,239.667 373.167,239.667 381.5,239C 381.957,238.586 382.291,238.086 382.5,237.5C 380.598,235.937 379.598,233.937 379.5,231.5C 381.177,225.128 383.01,218.794 385,212.5C 385.689,211.643 386.522,210.977 387.5,210.5C 389.276,212.538 390.943,214.704 392.5,217C 397.625,218.569 401.459,217.069 404,212.5C 405.113,213.711 406.28,213.711 407.5,212.5C 408.192,213.025 408.692,213.692 409,214.5C 410.008,221.901 411.341,229.234 413,236.5C 414.26,239.428 416.427,241.261 419.5,242C 417.164,244.833 414.164,246 410.5,245.5C 409.715,238.892 406.048,236.392 399.5,238C 395.258,243.23 395.925,247.897 401.5,252C 405.381,253.19 409.381,253.857 413.5,254C 413.043,254.414 412.709,254.914 412.5,255.5C 416.081,258.896 416.414,262.563 413.5,266.5C 410.767,269.239 407.767,271.573 404.5,273.5C 400.987,266.981 397.321,260.481 393.5,254C 387.277,252.419 380.944,252.085 374.5,253C 373.941,253.725 373.608,254.558 373.5,255.5C 374.167,257.5 374.833,259.5 375.5,261.5C 371.521,274.084 367.854,286.75 364.5,299.5C 293.834,329.333 220.501,338.833 144.5,328C 124.009,324.394 105.009,317.061 87.5,306C 62.6218,286.507 59.9552,264.341 79.5,239.5C 89.3433,239.597 95.3433,234.93 97.5,225.5C 98.7652,220.901 101.765,217.901 106.5,216.5C 103.954,221.91 103.121,227.577 104,233.5C 107.732,239.046 112.899,240.879 119.5,239C 122.621,238.274 125.287,236.774 127.5,234.5C 132.723,240.988 139.057,242.155 146.5,238C 150.01,236.093 151.176,233.26 150,229.5C 148.529,231.872 147.363,231.872 146.5,229.5C 148.368,222.398 150.534,215.398 153,208.5C 153.499,201.846 150.332,199.179 143.5,200.5C 138.451,199.611 134.451,201.111 131.5,205C 132.394,206.396 133.061,207.896 133.5,209.5C 132,214.833 130.5,220.167 129,225.5C 126.768,229.063 124.602,229.23 122.5,226C 124.814,218.896 126.814,211.729 128.5,204.5C 128.369,203.624 128.702,202.957 129.5,202.5C 181.268,178.418 235.768,166.418 293,166.5C 325.045,165.023 356.212,169.523 386.5,180C 398.456,184.305 409.122,190.639 418.5,199C 417.263,199.232 416.263,199.732 415.5,200.5 Z"/></g>
<g><path style="opacity:1" fill="#5673fe" d="M 97.5,225.5 C 95.3433,234.93 89.3433,239.597 79.5,239.5C 73.0109,240.446 67.3442,238.78 62.5,234.5C 60.6414,236.192 58.6414,237.692 56.5,239C 51.3333,240.5 49.5,238.667 51,233.5C 52.2052,229.384 53.7052,225.384 55.5,221.5C 57.4213,220.359 59.4213,220.192 61.5,221C 64.1298,224.632 67.1298,227.965 70.5,231C 73.6693,231.978 76.5027,231.478 79,229.5C 79.6667,228.5 79.6667,227.5 79,226.5C 73.0422,222.211 67.3756,217.544 62,212.5C 58.3979,198.091 64.0646,190.425 79,189.5C 84.25,189.305 89.0834,190.639 93.5,193.5C 96.3717,189.965 99.8717,188.965 104,190.5C 103.925,196.39 102.425,201.89 99.5,207C 98.1667,207.667 96.8333,207.667 95.5,207C 92.465,203.63 89.1317,200.63 85.5,198C 79.3471,196.152 77.3471,198.152 79.5,204C 86.0039,207.664 91.8372,212.164 97,217.5C 97.4974,220.146 97.6641,222.813 97.5,225.5 Z"/></g>
<g><path style="opacity:1" fill="#5573fd" d="M 128.5,204.5 C 126.814,211.729 124.814,218.896 122.5,226C 124.602,229.23 126.768,229.063 129,225.5C 130.5,220.167 132,214.833 133.5,209.5C 133.061,207.896 132.394,206.396 131.5,205C 134.451,201.111 138.451,199.611 143.5,200.5C 150.332,199.179 153.499,201.846 153,208.5C 150.534,215.398 148.368,222.398 146.5,229.5C 147.363,231.872 148.529,231.872 150,229.5C 151.176,233.26 150.01,236.093 146.5,238C 139.057,242.155 132.723,240.988 127.5,234.5C 125.287,236.774 122.621,238.274 119.5,239C 112.899,240.879 107.732,239.046 104,233.5C 103.121,227.577 103.954,221.91 106.5,216.5C 108.746,212.676 108.746,208.843 106.5,205C 106.759,203.739 107.426,202.739 108.5,202C 114.08,200.483 119.747,200.149 125.5,201C 126.636,202.145 127.636,203.312 128.5,204.5 Z"/></g>
<g><path style="opacity:1" fill="#5473fd" d="M 164.5,200.5 C 168.846,200.334 173.179,200.501 177.5,201C 179.768,202.558 180.934,204.724 181,207.5C 187.219,199.846 194.553,198.513 203,203.5C 203.862,205.087 204.529,206.754 205,208.5C 210.315,200.547 217.482,198.381 226.5,202C 228.682,204.019 229.682,206.519 229.5,209.5C 228.347,216.127 226.68,222.627 224.5,229C 225.045,232.013 226.211,232.179 228,229.5C 228.65,234.027 226.816,237.194 222.5,239C 218.167,239.667 213.833,239.667 209.5,239C 206.372,237.212 205.039,234.545 205.5,231C 207.266,224.534 208.932,218.034 210.5,211.5C 206.425,211.399 203.925,213.399 203,217.5C 200.85,222.065 200.016,226.731 200.5,231.5C 201.478,231.023 202.311,230.357 203,229.5C 202.725,236.605 198.892,240.272 191.5,240.5C 182.462,239.964 178.962,235.297 181,226.5C 183.22,221.676 184.72,216.676 185.5,211.5C 182.192,210.974 180.026,212.307 179,215.5C 177.066,221.136 175.233,226.802 173.5,232.5C 173.939,234.104 174.606,235.604 175.5,237C 175.355,237.772 175.022,238.439 174.5,239C 166.833,239.667 159.167,239.667 151.5,239C 150.399,236.708 151.232,235.208 154,234.5C 156.535,227.228 158.868,219.895 161,212.5C 161.269,209.357 160.936,206.357 160,203.5C 161.652,202.601 163.152,201.601 164.5,200.5 Z"/></g>
<g><path style="opacity:1" fill="#5472fd" d="M 244.5,200.5 C 248.182,200.335 251.848,200.501 255.5,201C 257.378,202.543 258.878,204.376 260,206.5C 266.182,199.756 273.182,198.756 281,203.5C 281.862,205.087 282.529,206.754 283,208.5C 288.406,200.552 295.573,198.385 304.5,202C 306.853,204.133 307.853,206.8 307.5,210C 306.553,216.675 304.887,223.175 302.5,229.5C 303.363,231.872 304.529,231.872 306,229.5C 305.768,236.562 301.934,240.229 294.5,240.5C 285.518,240.011 282.018,235.345 284,226.5C 285.833,222.167 287.667,217.833 289.5,213.5C 287.423,210.881 285.257,210.881 283,213.5C 280.103,219.318 278.603,225.318 278.5,231.5C 281.402,229.197 282.236,230.197 281,234.5C 275.442,240.924 268.942,242.091 261.5,238C 259.408,236.147 258.408,233.814 258.5,231C 259.601,224.863 261.601,219.03 264.5,213.5C 262.423,210.881 260.257,210.881 258,213.5C 255.837,219.989 253.67,226.489 251.5,233C 252.167,234.333 252.833,235.667 253.5,237C 253.355,237.772 253.022,238.439 252.5,239C 244.833,239.667 237.167,239.667 229.5,239C 229.043,238.586 228.709,238.086 228.5,237.5C 230.342,236.158 231.842,234.491 233,232.5C 235.298,224.605 237.798,216.772 240.5,209C 239.711,207.374 238.711,205.874 237.5,204.5C 239.482,202.436 241.816,201.103 244.5,200.5 Z"/></g>
<g><path style="opacity:1" fill="#5573fc" d="M 326.5,200.5 C 332.509,200.334 338.509,200.501 344.5,201C 353.697,202.896 357.197,208.396 355,217.5C 352.959,221.737 352.125,226.07 352.5,230.5C 353.167,230.167 353.833,229.833 354.5,229.5C 355.799,232.434 355.132,234.934 352.5,237C 347.289,239.766 341.956,240.099 336.5,238C 335.382,236.926 334.382,235.76 333.5,234.5C 328.652,238.947 322.985,240.447 316.5,239C 307.579,232.74 307.246,226.073 315.5,219C 322.72,215.93 330.054,215.764 337.5,218.5C 338.084,215.33 338.75,212.163 339.5,209C 339.576,206.244 338.243,205.077 335.5,205.5C 334.918,212.969 330.918,215.802 323.5,214C 319.448,211.624 318.615,208.457 321,204.5C 323.015,203.303 324.849,201.97 326.5,200.5 Z"/></g>
<g><path style="opacity:1" fill="#b6ef83" d="M 330.5,222.5 C 332.288,222.215 333.955,222.548 335.5,223.5C 334.603,226.657 332.769,228.991 330,230.5C 328.268,230.266 327.434,229.266 327.5,227.5C 328.092,225.577 329.092,223.911 330.5,222.5 Z"/></g>
<g><path style="opacity:1" fill="#bef97c" d="M 426.5,247.5 C 426.938,247.435 427.272,247.601 427.5,248C 426.614,249.615 425.614,251.115 424.5,252.5C 422.473,252.662 420.473,252.495 418.5,252C 421.356,250.741 424.023,249.241 426.5,247.5 Z"/></g>
<g><path style="opacity:1" fill="#5473fd" d="M 332.5,251.5 C 360.592,250.782 369.092,263.449 358,289.5C 348.98,305.76 335.146,312.593 316.5,310C 306.405,307.14 301.405,300.473 301.5,290C 302.924,269.764 313.258,256.93 332.5,251.5 Z"/></g>
<g><path style="opacity:1" fill="#5573fc" d="M 88.5,252.5 C 97.4178,252.183 106.251,252.516 115,253.5C 112.884,262.829 113.218,272.162 116,281.5C 119.911,276.678 123.578,271.678 127,266.5C 128.112,262.069 126.946,258.402 123.5,255.5C 123.608,254.558 123.941,253.725 124.5,253C 133.548,252.195 142.548,252.361 151.5,253.5C 151.833,254.167 152.167,254.833 152.5,255.5C 150.659,258.19 149.659,261.19 149.5,264.5C 150.11,269.822 150.61,275.156 151,280.5C 155.748,272.001 160.748,263.668 166,255.5C 170.478,252.151 175.312,251.651 180.5,254C 185.003,260.309 184.003,265.643 177.5,270C 173.726,271.183 170.559,270.349 168,267.5C 160.125,281.422 151.625,294.922 142.5,308C 138.338,310.572 135.172,309.738 133,305.5C 131.521,296.195 130.188,286.861 129,277.5C 122.667,286.833 116.333,296.167 110,305.5C 104.523,311.402 100.19,310.735 97,303.5C 95.3262,289.123 93.3262,274.79 91,260.5C 87.6753,258.521 86.8419,255.855 88.5,252.5 Z"/></g>
<g><path style="opacity:1" fill="#5573fc" d="M 210.5,251.5 C 216.678,251.107 222.678,251.94 228.5,254C 234.364,257.566 236.53,262.733 235,269.5C 231.525,280.064 228.359,290.731 225.5,301.5C 227.106,303.59 227.606,305.924 227,308.5C 217.911,309.65 208.745,309.817 199.5,309C 198.483,307.951 198.316,306.784 199,305.5C 203.517,302.859 206.017,298.859 206.5,293.5C 201.95,292.2 197.45,292.2 193,293.5C 191.556,296.055 190.389,298.721 189.5,301.5C 190.167,303.167 190.833,304.833 191.5,306.5C 191.392,307.442 191.059,308.275 190.5,309C 184.167,309.667 177.833,309.667 171.5,309C 170.483,307.951 170.316,306.784 171,305.5C 174.881,303.554 178.214,300.888 181,297.5C 186.728,285.044 192.728,272.711 199,260.5C 202.183,256.462 206.016,253.462 210.5,251.5 Z"/></g>
<g><path style="opacity:1" fill="#5472fd" d="M 264.5,251.5 C 272.412,250.935 279.578,252.935 286,257.5C 287.775,256.73 289.275,255.563 290.5,254C 293.03,252.578 295.697,252.245 298.5,253C 299.894,253.956 300.561,255.289 300.5,257C 299.559,262.787 297.559,268.121 294.5,273C 292.029,273.706 289.695,273.373 287.5,272C 276.859,258.303 268.692,259.803 263,276.5C 260.423,282.761 260.089,289.094 262,295.5C 269.389,300.725 273.555,298.725 274.5,289.5C 274.167,288.5 273.833,287.5 273.5,286.5C 269.15,286.114 267.483,283.781 268.5,279.5C 279.167,279.5 289.833,279.5 300.5,279.5C 300.657,280.873 300.49,282.207 300,283.5C 297.667,285.167 295.333,286.833 293,288.5C 291.333,294.5 289.667,300.5 288,306.5C 287.5,307.667 286.667,308.5 285.5,309C 279.665,310.956 275.665,309.123 273.5,303.5C 267.228,309.139 259.894,310.973 251.5,309C 240.503,303.16 236.336,293.993 239,281.5C 241.274,266.069 249.774,256.069 264.5,251.5 Z"/></g>
<g><path style="opacity:1" fill="#5573fd" d="M 415.5,200.5 C 424.229,199.558 428.562,203.558 428.5,212.5C 428.948,217.189 429.615,221.855 430.5,226.5C 430.64,228.03 431.307,229.03 432.5,229.5C 435.098,227.155 437.098,224.322 438.5,221C 432.853,215.145 432.186,208.812 436.5,202C 440.192,199.841 443.692,200.007 447,202.5C 448.545,207.047 448.879,211.713 448,216.5C 444.246,229.388 437.079,239.722 426.5,247.5C 424.023,249.241 421.356,250.741 418.5,252C 420.473,252.495 422.473,252.662 424.5,252.5C 426.199,252.34 427.866,252.506 429.5,253C 430.022,253.561 430.355,254.228 430.5,255C 429.056,257.449 427.222,259.615 425,261.5C 422.024,271.402 419.358,281.402 417,291.5C 415.42,297.243 413.253,302.743 410.5,308C 404.643,310.835 399.81,309.669 396,304.5C 393.33,297.827 390.163,291.494 386.5,285.5C 385.483,281.947 383.983,278.614 382,275.5C 379.805,280.255 378.305,285.255 377.5,290.5C 374.306,295.661 373.973,300.994 376.5,306.5C 376.392,307.442 376.059,308.275 375.5,309C 370.167,309.667 364.833,309.667 359.5,309C 358.483,307.951 358.316,306.784 359,305.5C 361.744,304.26 363.577,302.26 364.5,299.5C 367.854,286.75 371.521,274.084 375.5,261.5C 374.833,259.5 374.167,257.5 373.5,255.5C 373.608,254.558 373.941,253.725 374.5,253C 380.944,252.085 387.277,252.419 393.5,254C 397.321,260.481 400.987,266.981 404.5,273.5C 405.462,276.757 406.962,279.757 409,282.5C 410.796,277.243 412.296,271.91 413.5,266.5C 416.414,262.563 416.081,258.896 412.5,255.5C 412.709,254.914 413.043,254.414 413.5,254C 409.381,253.857 405.381,253.19 401.5,252C 395.925,247.897 395.258,243.23 399.5,238C 406.048,236.392 409.715,238.892 410.5,245.5C 414.164,246 417.164,244.833 419.5,242C 416.427,241.261 414.26,239.428 413,236.5C 411.341,229.234 410.008,221.901 409,214.5C 408.692,213.692 408.192,213.025 407.5,212.5C 406.28,213.711 405.113,213.711 404,212.5C 401.459,217.069 397.625,218.569 392.5,217C 390.943,214.704 389.276,212.538 387.5,210.5C 386.522,210.977 385.689,211.643 385,212.5C 383.01,218.794 381.177,225.128 379.5,231.5C 379.598,233.937 380.598,235.937 382.5,237.5C 382.291,238.086 381.957,238.586 381.5,239C 373.167,239.667 364.833,239.667 356.5,239C 356.043,238.586 355.709,238.086 355.5,237.5C 357.342,236.158 358.842,234.491 360,232.5C 362.298,224.605 364.798,216.772 367.5,209C 366.711,207.374 365.711,205.874 364.5,204.5C 367.544,201.133 371.378,199.8 376,200.5C 380.397,199.751 383.897,201.084 386.5,204.5C 387.685,203.147 389.019,201.98 390.5,201C 398.574,198.613 403.407,201.446 405,209.5C 406.853,204.473 410.353,201.473 415.5,200.5 Z"/></g>
<g><path style="opacity:1" fill="#c1f58b" d="M 428.5,212.5 C 431.536,217.651 432.87,223.317 432.5,229.5C 431.307,229.03 430.64,228.03 430.5,226.5C 429.615,221.855 428.948,217.189 428.5,212.5 Z"/></g>
<g><path style="opacity:1" fill="#befa76" d="M 335.5,259.5 C 337.722,259.178 339.556,259.845 341,261.5C 340.898,274.485 337.898,286.818 332,298.5C 329.211,302.74 325.878,303.407 322,300.5C 322.449,288.701 325.116,277.368 330,266.5C 331.666,264.004 333.5,261.671 335.5,259.5 Z"/></g>
<g><path style="opacity:1" fill="#bdfa77" d="M 207.5,263.5 C 209.527,263.338 211.527,263.505 213.5,264C 214.059,264.725 214.392,265.558 214.5,266.5C 212.831,271.839 211.165,277.172 209.5,282.5C 205.541,283.66 201.541,283.827 197.5,283C 200.448,276.27 203.781,269.77 207.5,263.5 Z"/></g>
<g><path style="opacity:1" fill="#f3f5fc" d="M 413.5,266.5 C 412.296,271.91 410.796,277.243 409,282.5C 406.962,279.757 405.462,276.757 404.5,273.5C 407.767,271.573 410.767,269.239 413.5,266.5 Z"/></g>
<g><path style="opacity:1" fill="#bdf77b" d="M 386.5,285.5 C 384.689,288.43 382.022,290.43 378.5,291.5C 377.893,291.376 377.56,291.043 377.5,290.5C 378.305,285.255 379.805,280.255 382,275.5C 383.983,278.614 385.483,281.947 386.5,285.5 Z"/></g>
</svg>
