<?xml version="1.0" encoding="UTF-8"?>
<!DOCTYPE svg PUBLIC "-//W3C//DTD SVG 1.1//EN" "http://www.w3.org/Graphics/SVG/1.1/DTD/svg11.dtd">
<svg xmlns="http://www.w3.org/2000/svg" version="1.1" width="500px" height="500px" style="shape-rendering:geometricPrecision; text-rendering:geometricPrecision; image-rendering:optimizeQuality; fill-rule:evenodd; clip-rule:evenodd" xmlns:xlink="http://www.w3.org/1999/xlink">
<g><path style="opacity:1" fill="#fefeff" d="M -0.5,-0.5 C 166.167,-0.5 332.833,-0.5 499.5,-0.5C 499.5,166.167 499.5,332.833 499.5,499.5C 332.833,499.5 166.167,499.5 -0.5,499.5C -0.5,332.833 -0.5,166.167 -0.5,-0.5 Z"/></g>
<g><path style="opacity:1" fill="#5472ff" d="M 141.5,187.5 C 153.5,187.5 165.5,187.5 177.5,187.5C 177.784,190.777 177.451,193.943 176.5,197C 169.508,197.5 162.508,197.666 155.5,197.5C 155.5,200.167 155.5,202.833 155.5,205.5C 160.167,205.5 164.833,205.5 169.5,205.5C 169.784,208.777 169.451,211.943 168.5,215C 164.179,215.499 159.846,215.666 155.5,215.5C 155.5,218.167 155.5,220.833 155.5,223.5C 162.833,223.5 170.167,223.5 177.5,223.5C 177.5,226.833 177.5,230.167 177.5,233.5C 165.5,233.5 153.5,233.5 141.5,233.5C 141.5,218.167 141.5,202.833 141.5,187.5 Z"/></g>
<g><path style="opacity:1" fill="#5573ff" d="M 197.5,187.5 C 202.762,187.195 207.928,187.529 213,188.5C 218.671,203.348 223.838,218.348 228.5,233.5C 223.821,233.666 219.155,233.499 214.5,233C 213.407,230.557 212.407,228.057 211.5,225.5C 206.533,224.338 201.533,224.171 196.5,225C 195.407,227.443 194.407,229.943 193.5,232.5C 189.555,233.491 185.555,233.824 181.5,233.5C 186.239,217.948 191.573,202.615 197.5,187.5 Z"/></g>
<g><path style="opacity:1" fill="#5874ff" d="M 232.5,187.5 C 242.839,187.334 253.172,187.5 263.5,188C 273.833,192.276 276.333,199.443 271,209.5C 269.043,210.889 267.21,212.389 265.5,214C 268.859,220.217 271.525,226.717 273.5,233.5C 268.821,233.666 264.155,233.499 259.5,233C 257.142,227.596 254.975,222.096 253,216.5C 251.301,215.594 249.467,215.261 247.5,215.5C 247.666,221.176 247.499,226.843 247,232.5C 242.333,233.833 237.667,233.833 233,232.5C 232.5,217.504 232.333,202.504 232.5,187.5 Z"/></g>
<g><path style="opacity:1" fill="#5371ff" d="M 279.5,187.5 C 284.167,187.5 288.833,187.5 293.5,187.5C 293.5,199.5 293.5,211.5 293.5,223.5C 300.5,223.5 307.5,223.5 314.5,223.5C 314.5,226.833 314.5,230.167 314.5,233.5C 302.833,233.5 291.167,233.5 279.5,233.5C 279.5,218.167 279.5,202.833 279.5,187.5 Z"/></g>
<g><path style="opacity:1" fill="#5472ff" d="M 317.5,187.5 C 322.875,187.172 328.208,187.505 333.5,188.5C 336.167,193.167 338.833,197.833 341.5,202.5C 344.611,197.787 347.611,192.953 350.5,188C 354.541,187.173 358.541,187.34 362.5,188.5C 357.468,196.369 352.635,204.369 348,212.5C 347.667,219.167 347.333,225.833 347,232.5C 342.599,233.467 338.099,233.8 333.5,233.5C 333.666,226.825 333.5,220.158 333,213.5C 327.559,204.943 322.392,196.277 317.5,187.5 Z"/></g>
<g><path style="opacity:1" fill="#fbfcff" d="M 247.5,196.5 C 250.518,196.335 253.518,196.502 256.5,197C 259.917,199.321 260.25,201.988 257.5,205C 254.183,205.498 250.85,205.665 247.5,205.5C 247.5,202.5 247.5,199.5 247.5,196.5 Z"/></g>
<g><path style="opacity:1" fill="#f3f5ff" d="M 203.5,201.5 C 205.411,205.233 206.744,209.233 207.5,213.5C 204.833,213.5 202.167,213.5 199.5,213.5C 200.633,209.433 201.967,205.433 203.5,201.5 Z"/></g>
<g><path style="opacity:1" fill="#6c82ff" d="M 52.5,259.5 C 61.2132,259.248 69.8798,259.748 78.5,261C 92.0871,265.665 97.9204,275.165 96,289.5C 93.936,299.231 88.1026,305.397 78.5,308C 69.8333,308.667 61.1667,308.667 52.5,308C 52,307.5 51.5,307 51,306.5C 50.3333,291.5 50.3333,276.5 51,261.5C 51.7172,260.956 52.2172,260.289 52.5,259.5 Z"/></g>
<g><path style="opacity:1" fill="#6e83ff" d="M 100.5,259.5 C 112.551,259.187 124.551,259.521 136.5,260.5C 137.795,264.38 137.795,268.214 136.5,272C 129.508,272.5 122.508,272.666 115.5,272.5C 115.5,274.167 115.5,275.833 115.5,277.5C 127.462,274.297 131.795,278.464 128.5,290C 124.179,290.499 119.846,290.666 115.5,290.5C 115.5,292.167 115.5,293.833 115.5,295.5C 122.175,295.334 128.842,295.5 135.5,296C 136.416,296.374 137.25,296.874 138,297.5C 138.789,301.091 138.622,304.591 137.5,308C 124.82,308.833 112.154,308.666 99.5,307.5C 98.3495,292.211 98.1829,276.878 99,261.5C 99.7172,260.956 100.217,260.289 100.5,259.5 Z"/></g>
<g><path style="opacity:1" fill="#6a80ff" d="M 140.5,259.5 C 145.179,259.334 149.845,259.501 154.5,260C 155,260.5 155.5,261 156,261.5C 158.665,269.489 161.331,277.489 164,285.5C 166.458,276.792 169.292,268.292 172.5,260C 176.541,259.173 180.541,259.34 184.5,260.5C 184.931,261.293 185.265,262.127 185.5,263C 180.355,278.103 175.022,293.103 169.5,308C 164.833,308.667 160.167,308.667 155.5,308C 149.761,293.789 144.594,279.289 140,264.5C 139.36,262.735 139.527,261.068 140.5,259.5 Z"/></g>
<g><path style="opacity:1" fill="#6f85ff" d="M 189.5,259.5 C 201.171,259.333 212.838,259.5 224.5,260C 226.045,261.822 226.712,263.989 226.5,266.5C 226.46,268.429 226.127,270.262 225.5,272C 218.508,272.5 211.508,272.666 204.5,272.5C 204.5,274.167 204.5,275.833 204.5,277.5C 216.173,274.18 220.507,278.18 217.5,289.5C 213.217,290.492 208.884,290.826 204.5,290.5C 204.5,292.167 204.5,293.833 204.5,295.5C 211.558,295.203 218.558,295.536 225.5,296.5C 226.795,300.38 226.795,304.214 225.5,308C 212.924,308.821 200.424,308.655 188,307.5C 187.333,292.167 187.333,276.833 188,261.5C 188.717,260.956 189.217,260.289 189.5,259.5 Z"/></g>
<g><path style="opacity:1" fill="#6f85ff" d="M 231.5,259.5 C 236.233,259.223 240.9,259.557 245.5,260.5C 246.499,272.148 246.832,283.814 246.5,295.5C 252.842,295.334 259.175,295.5 265.5,296C 267.045,297.822 267.712,299.989 267.5,302.5C 267.46,304.429 267.127,306.262 266.5,308C 254.258,308.821 242.091,308.654 230,307.5C 229.333,292.167 229.333,276.833 230,261.5C 230.717,260.956 231.217,260.289 231.5,259.5 Z"/></g>
<g><path style="opacity:1" fill="#7287ff" d="M 320.5,259.5 C 328.84,259.334 337.173,259.5 345.5,260C 361.754,264.498 365.421,273.831 356.5,288C 350.099,291.959 343.099,293.459 335.5,292.5C 335.805,297.762 335.471,302.928 334.5,308C 329.249,308.804 324.082,308.637 319,307.5C 318.833,299.667 318.667,291.833 318.5,284C 318.531,275.601 319.198,267.434 320.5,259.5 Z"/></g>
<g><path style="opacity:1" fill="#6e83ff" d="M 365.5,259.5 C 377.551,259.187 389.551,259.521 401.5,260.5C 402.795,264.38 402.795,268.214 401.5,272C 394.508,272.5 387.508,272.666 380.5,272.5C 380.5,274.167 380.5,275.833 380.5,277.5C 392.462,274.297 396.795,278.464 393.5,290C 389.179,290.499 384.846,290.666 380.5,290.5C 380.5,292.167 380.5,293.833 380.5,295.5C 387.175,295.334 393.842,295.5 400.5,296C 401.416,296.374 402.25,296.874 403,297.5C 403.789,301.091 403.622,304.591 402.5,308C 389.82,308.833 377.154,308.666 364.5,307.5C 363.35,292.211 363.183,276.878 364,261.5C 364.717,260.956 365.217,260.289 365.5,259.5 Z"/></g>
<g><path style="opacity:1" fill="#6a80ff" d="M 407.5,259.5 C 417.878,259.196 428.211,259.696 438.5,261C 447.008,263.853 450.508,269.686 449,278.5C 447.077,282.258 444.577,285.591 441.5,288.5C 443.059,292.619 444.893,296.619 447,300.5C 448.079,303.063 448.579,305.729 448.5,308.5C 443.156,308.666 437.823,308.499 432.5,308C 430.198,302.26 428.198,296.427 426.5,290.5C 425.167,290.5 423.833,290.5 422.5,290.5C 422.808,296.425 422.475,302.259 421.5,308C 419,308.167 416.5,308.333 414,308.5C 411.05,308.432 408.383,307.766 406,306.5C 405.333,291.5 405.333,276.5 406,261.5C 406.717,260.956 407.217,260.289 407.5,259.5 Z"/></g>
<g><path style="opacity:1" fill="#fafbff" d="M 53.5,262.5 C 61.1739,262.334 68.8406,262.5 76.5,263C 87.8689,265.412 93.5355,272.412 93.5,284C 93.4509,296.767 87.1176,304.1 74.5,306C 67.5079,306.5 60.5079,306.666 53.5,306.5C 53.5,291.833 53.5,277.167 53.5,262.5 Z"/></g>
<g><path style="opacity:1" fill="#fcfdff" d="M 134.5,262.5 C 134.5,264.833 134.5,267.167 134.5,269.5C 127.646,269.176 120.979,269.509 114.5,270.5C 113.182,273.565 113.182,276.731 114.5,280C 118.486,280.499 122.486,280.666 126.5,280.5C 126.5,282.833 126.5,285.167 126.5,287.5C 122.486,287.334 118.486,287.501 114.5,288C 113.544,291.394 113.211,294.894 113.5,298.5C 120.833,298.5 128.167,298.5 135.5,298.5C 135.5,301.167 135.5,303.833 135.5,306.5C 124.167,306.5 112.833,306.5 101.5,306.5C 101.5,291.833 101.5,277.167 101.5,262.5C 112.5,262.5 123.5,262.5 134.5,262.5 Z"/></g>
<g><path style="opacity:1" fill="#fbfbff" d="M 142.5,262.5 C 146.555,262.176 150.555,262.509 154.5,263.5C 157.364,272.966 160.531,282.299 164,291.5C 167.586,282.407 170.586,273.073 173,263.5C 176.057,262.549 179.223,262.216 182.5,262.5C 178.309,276.574 173.809,290.574 169,304.5C 167.13,305.743 164.964,306.41 162.5,306.5C 160.036,306.41 157.87,305.743 156,304.5C 151.191,290.574 146.691,276.574 142.5,262.5 Z"/></g>
<g><path style="opacity:1" fill="#fcfcff" d="M 190.5,262.5 C 201.5,262.5 212.5,262.5 223.5,262.5C 223.5,265.167 223.5,267.833 223.5,270.5C 216.245,270.187 209.079,270.52 202,271.5C 201.223,274.429 201.39,277.263 202.5,280C 206.821,280.499 211.154,280.666 215.5,280.5C 215.5,282.833 215.5,285.167 215.5,287.5C 211.486,287.334 207.486,287.501 203.5,288C 201.496,290.841 200.996,294.007 202,297.5C 209.413,298.481 216.913,298.814 224.5,298.5C 224.5,301.167 224.5,303.833 224.5,306.5C 213.167,306.5 201.833,306.5 190.5,306.5C 190.5,291.833 190.5,277.167 190.5,262.5 Z"/></g>
<g><path style="opacity:1" fill="#fefeff" d="M 264.5,298.5 C 264.5,300.833 264.5,303.167 264.5,305.5C 253.833,305.5 243.167,305.5 232.5,305.5C 232.5,291.167 232.5,276.833 232.5,262.5C 236.167,262.5 239.833,262.5 243.5,262.5C 243.333,274.171 243.5,285.838 244,297.5C 250.744,298.479 257.578,298.812 264.5,298.5 Z"/></g>
<g><path style="opacity:1" fill="#fcfdff" d="M 321.5,262.5 C 330.173,262.334 338.84,262.5 347.5,263C 357.325,265.476 360.825,271.642 358,281.5C 356.01,285.49 352.843,287.99 348.5,289C 343.25,289.193 338.083,289.693 333,290.5C 332.501,295.823 332.334,301.156 332.5,306.5C 328.833,306.5 325.167,306.5 321.5,306.5C 321.5,291.833 321.5,277.167 321.5,262.5 Z"/></g>
<g><path style="opacity:1" fill="#fcfdff" d="M 399.5,262.5 C 399.5,264.833 399.5,267.167 399.5,269.5C 392.646,269.176 385.979,269.509 379.5,270.5C 378.182,273.565 378.182,276.731 379.5,280C 383.486,280.499 387.486,280.666 391.5,280.5C 391.5,282.833 391.5,285.167 391.5,287.5C 387.486,287.334 383.486,287.501 379.5,288C 378.544,291.394 378.211,294.894 378.5,298.5C 385.833,298.5 393.167,298.5 400.5,298.5C 400.5,301.167 400.5,303.833 400.5,306.5C 389.167,306.5 377.833,306.5 366.5,306.5C 366.5,291.833 366.5,277.167 366.5,262.5C 377.5,262.5 388.5,262.5 399.5,262.5 Z"/></g>
<g><path style="opacity:1" fill="#fbfcff" d="M 420.5,289.5 C 419.512,294.64 419.179,299.974 419.5,305.5C 415.833,305.5 412.167,305.5 408.5,305.5C 408.5,291.167 408.5,276.833 408.5,262.5C 417.839,262.334 427.173,262.5 436.5,263C 445.451,265.061 448.618,270.561 446,279.5C 443.778,282.667 441.278,285.5 438.5,288C 441.304,293.774 443.97,299.607 446.5,305.5C 442.217,306.492 437.884,306.826 433.5,306.5C 432.173,300.686 430.34,295.019 428,289.5C 425.379,286.86 422.879,286.86 420.5,289.5 Z"/></g>
<g><path style="opacity:1" fill="#677fff" d="M 285.5,259.5 C 307.627,258.795 317.461,269.462 315,291.5C 310.335,305.087 300.835,310.92 286.5,309C 276.447,306.28 270.613,299.78 269,289.5C 266.985,275.185 272.485,265.185 285.5,259.5 Z"/></g>
<g><path style="opacity:1" fill="#fafbff" d="M 288.5,261.5 C 306.318,261.826 314.484,270.826 313,288.5C 309.417,303.556 299.917,309.39 284.5,306C 277.464,303.631 273.297,298.798 272,291.5C 268.485,276.174 273.985,266.174 288.5,261.5 Z"/></g>
<g><path style="opacity:1" fill="#c8d1ff" d="M 134.5,262.5 C 135.473,264.948 135.806,267.615 135.5,270.5C 128.5,270.5 121.5,270.5 114.5,270.5C 120.979,269.509 127.646,269.176 134.5,269.5C 134.5,267.167 134.5,264.833 134.5,262.5 Z"/></g>
<g><path style="opacity:1" fill="#607aff" d="M 288.5,269.5 C 294.156,268.243 297.989,270.243 300,275.5C 300.667,281.5 300.667,287.5 300,293.5C 297.983,298.924 294.15,300.758 288.5,299C 285.732,297.238 284.232,294.738 284,291.5C 283.333,286.5 283.333,281.5 284,276.5C 284.938,273.743 286.438,271.41 288.5,269.5 Z"/></g>
<g><path style="opacity:1" fill="#c8d1ff" d="M 399.5,262.5 C 400.473,264.948 400.806,267.615 400.5,270.5C 393.5,270.5 386.5,270.5 379.5,270.5C 385.979,269.509 392.646,269.176 399.5,269.5C 399.5,267.167 399.5,264.833 399.5,262.5 Z"/></g>
<g><path style="opacity:1" fill="#5c77ff" d="M 420.5,269.5 C 424.182,269.335 427.848,269.501 431.5,270C 435.01,273.048 435.343,276.381 432.5,280C 428.514,280.499 424.514,280.666 420.5,280.5C 420.5,276.833 420.5,273.167 420.5,269.5 Z"/></g>
<g><path style="opacity:1" fill="#5b77ff" d="M 65.5,270.5 C 78.2899,269.796 83.4565,275.796 81,288.5C 78.95,296.452 73.7833,299.785 65.5,298.5C 65.5,289.167 65.5,279.833 65.5,270.5 Z"/></g>
<g><path style="opacity:1" fill="#7589ff" d="M 334.5,269.5 C 338.753,268.986 342.587,269.986 346,272.5C 346.944,282.025 342.777,285.025 333.5,281.5C 331.937,277.251 332.27,273.251 334.5,269.5 Z"/></g>
<g><path style="opacity:1" fill="#f7f8ff" d="M 289.5,271.5 C 294.118,270.949 296.951,272.949 298,277.5C 298.851,283.253 298.517,288.92 297,294.5C 291.943,299.085 288.277,298.085 286,291.5C 285.333,286.833 285.333,282.167 286,277.5C 286.564,275.113 287.73,273.113 289.5,271.5 Z"/></g>
<g><path style="opacity:1" fill="#fafbff" d="M 422.5,271.5 C 425.187,271.336 427.854,271.503 430.5,272C 433.033,274.084 433.033,276.084 430.5,278C 427.854,278.497 425.187,278.664 422.5,278.5C 422.5,276.167 422.5,273.833 422.5,271.5 Z"/></g>
<g><path style="opacity:1" fill="#fafaff" d="M 67.5,272.5 C 75.5167,272.015 79.5167,275.848 79.5,284C 79.3312,292 75.3312,296.167 67.5,296.5C 67.5,288.5 67.5,280.5 67.5,272.5 Z"/></g>
<g><path style="opacity:1" fill="#fcfdff" d="M 335.5,272.5 C 337.857,272.337 340.19,272.503 342.5,273C 344.602,274.733 344.935,276.733 343.5,279C 340.854,279.497 338.187,279.664 335.5,279.5C 335.5,277.167 335.5,274.833 335.5,272.5 Z"/></g>
<g><path style="opacity:1" fill="#d0d8ff" d="M 420.5,289.5 C 420.5,295.167 420.5,300.833 420.5,306.5C 416.298,306.817 412.298,306.483 408.5,305.5C 412.167,305.5 415.833,305.5 419.5,305.5C 419.179,299.974 419.512,294.64 420.5,289.5 Z"/></g>
<g><path style="opacity:1" fill="#cad3ff" d="M 264.5,298.5 C 265.473,300.948 265.806,303.615 265.5,306.5C 254.321,306.828 243.321,306.495 232.5,305.5C 243.167,305.5 253.833,305.5 264.5,305.5C 264.5,303.167 264.5,300.833 264.5,298.5 Z"/></g>
</svg>
